<svg xmlns="http://www.w3.org/2000/svg" viewBox="0 0 600 80" fill="white">
  <!-- P -->
  <path d="M20 12h28c14 0 23 8 23 20s-9 20-23 20H36v20H20V12zm16 28h10c6 0 9-3 9-8s-3-8-9-8H36v16z"/>
  <!-- R -->
  <path d="M80 12h28c14 0 22 7 22 18 0 8-4 14-12 17l16 25h-18l-14-23H96v23H80V12zm16 26h10c5 0 8-3 8-8s-3-8-8-8H96v16z"/>
  <!-- O -->
  <path d="M172 11c20 0 34 14 34 31s-14 31-34 31-34-14-34-31 14-31 34-31zm0 48c10 0 17-8 17-17s-7-17-17-17-17 8-17 17 7 17 17 17z"/>
  <!-- J -->
  <path d="M220 12h16v42c0 10-7 18-20 18-8 0-14-3-18-8l10-11c2 3 5 5 8 5 4 0 4-3 4-6V12z"/>
  <!-- E -->
  <path d="M248 12h40v14h-24v10h22v13h-22v11h25v14h-41V12z"/>
  <!-- T -->
  <path d="M298 12h46v14h-15v46h-16V26h-15V12z"/>
  <!-- 1 -->
  <path d="M364 12h16v60h-16V12zm-8 0h12v14h-12V12z"/>
  <!-- 8 -->
  <path d="M414 11c17 0 28 8 28 19 0 8-5 13-11 16 8 3 13 9 13 18 0 12-12 21-30 21s-30-9-30-21c0-9 5-15 13-18-6-3-11-8-11-16 0-11 11-19 28-19zm0 46c8 0 13-4 13-9s-5-9-13-9-13 4-13 9 5 9 13 9zm0-28c6 0 11-3 11-8s-5-7-11-7-11 2-11 7 5 8 11 8z"/>
  <!-- 0 -->
  <path d="M484 11c20 0 34 14 34 31s-14 31-34 31-34-14-34-31 14-31 34-31zm0 48c10 0 17-8 17-17s-7-17-17-17-17 8-17 17 7 17 17 17z"/>
</svg>
